<?xml version="1.0" encoding="utf-8"?>
<!-- Generator: Adobe Illustrator 27.0.0, SVG Export Plug-In . SVG Version: 6.00 Build 0)  -->
<svg version="1.1" id="Warstwa_1" xmlns="http://www.w3.org/2000/svg" xmlns:xlink="http://www.w3.org/1999/xlink" x="0px" y="0px"
	 viewBox="0 0 100 100" style="enable-background:new 0 0 100 100;" xml:space="preserve">
<style type="text/css">
	.st0{fill:#020203;}
	.st1{fill:#FFFFFF;}
</style>
<g>
	<g transform="matrix(0.13 0 0 -0.13 0 0)">
		<path vector-effect="non-scaling-stroke" class="st0" d="M56.86-3.21C5.86-13.92,9.43,12.6,9.43-389.3
			c0-188.71,1.02-346.82,3.06-351.41c1.53-4.59,8.67-11.73,15.3-16.32c10.71-7.14,49.98-8.16,342.74-8.67
			c348.86-0.51,366.2,0.51,380.48,22.95c9.18,13.77,9.18,7.65,8.67,397.31l-0.51,314.69l-12.24,14.28L734.69-2.19H397.56
			C211.91-2.19,58.9-2.7,56.86-3.21z M732.65-23.1l11.22-7.65v-353.96c0-344.78-0.51-354.47-9.69-359.57
			c-6.63-3.06-125.47-5.1-350.39-5.1c-309.59,0-341.21,0.51-349.88,8.67c-8.67,7.65-9.18,25.5-9.18,358.55
			c0,287.15,1.02,351.92,6.63,356.51c5.1,4.08,104.56,6.12,340.7,7.14c183.61,0.51,337.13,1.53,341.21,2.55
			C717.86-15.45,726.53-18.51,732.65-23.1z"/>
	</g>
	<g transform="matrix(0.13 0 0 -0.13 -68.75 -64.48)">
		<path vector-effect="non-scaling-stroke" class="st0" d="M608.03-627.02v-51h13.26c12.75,0,13.26,1.02,10.71,17.85l-3.06,17.85
			h20.4c16.32,0,19.89,1.53,19.89,10.2c0,8.67-3.57,10.2-20.4,10.2c-16.83,0-20.4,1.53-20.4,10.2c0,8.67,3.57,10.2,25.5,10.2
			c23.97,0,25.5,1.02,25.5,12.75c0,12.24-1.02,12.75-35.7,12.75h-35.7V-627.02z"/>
	</g>
	<g transform="matrix(0.13 0 0 -0.13 -42.74 -64.48)">
		<path vector-effect="non-scaling-stroke" class="st0" d="M505.87-579.58c-5.61-5.1-4.08-54.57,2.04-72.42
			c6.63-18.36,17.85-26.01,38.76-26.01c29.07,0.51,42.33,23.97,42.33,74.97c0,25.5-1.02,27.03-12.75,27.03
			c-11.73,0-12.24-1.53-13.77-36.21c-1.02-27.54-3.57-38.25-10.2-41.82c-16.32-10.2-24.48,4.08-24.48,42.84
			c0,30.6-1.02,35.19-9.18,35.19C513.52-576.01,507.4-577.54,505.87-579.58z"/>
	</g>
	<g transform="matrix(0.13 0 0 -0.13 -15.31 -64.48)">
		<path vector-effect="non-scaling-stroke" class="st0" d="M403.16-583.67c-4.08-10.71,2.04-17.85,16.32-17.85
			c11.73,0,12.24-1.02,12.24-38.25c0-34.68,1.02-38.25,10.2-38.25c9.18,0,10.2,3.57,10.2,38.25v38.25h15.3
			c12.75,0,15.3,2.04,15.3,12.75c0,12.24-1.02,12.75-38.25,12.75C415.4-576.01,405.2-578.05,403.16-583.67z"/>
	</g>
	<g transform="matrix(0.13 0 0 -0.13 11.27 -64.48)">
		<path vector-effect="non-scaling-stroke" class="st0" d="M301.25-613.76c0-47.43,10.71-64.26,40.29-64.26s38.25,13.26,40.8,61.71
			c1.53,40.29,1.53,40.29-11.22,40.29c-12.75,0-12.75-0.51-10.2-29.58c4.08-43.86-10.71-64.77-31.11-43.86
			c-5.61,5.61-8.16,17.85-8.16,40.8c0,29.07-1.02,32.64-10.2,32.64C302.27-576.01,301.25-579.58,301.25-613.76z"/>
	</g>
	<g transform="matrix(0.13 0 0 -0.13 41.32 -64.48)">
		<path vector-effect="non-scaling-stroke" class="st0" d="M185.27-627.02c0-51,0-51,12.75-51c10.2,0,12.75,2.55,12.75,12.24
			c0,18.87,13.77,20.4,22.95,3.06c6.12-11.73,11.22-15.3,23.46-15.3h15.3l-10.71,14.28c-10.71,14.28-10.71,14.79-1.53,30.09
			c17.85,32.13-4.59,57.63-50.49,57.63h-24.48V-627.02z M243.42-609.68c4.59-11.22-5.61-22.44-20.4-22.44
			c-10.2,0-12.24,2.55-12.24,15.3c0,13.26,1.53,15.3,14.79,15.3C234.24-601.52,241.38-604.58,243.42-609.68z"/>
	</g>
	<g transform="matrix(0.13 0 0 -0.13 68.58 -64.48)">
		<path vector-effect="non-scaling-stroke" class="st0" d="M90.44-627.02v-51h35.7c32.13,0,35.7,1.02,35.7,10.2
			c0,8.67-3.57,10.2-25.5,10.2s-25.5,1.53-25.5,10.2c0,8.67,3.57,10.2,20.91,10.2c16.83,0,20.4,1.53,18.87,9.18
			c-1.53,6.63-6.12,8.16-20.91,7.14c-16.32-1.02-18.87,0-18.87,9.18c0,8.67,3.06,10.2,25.5,10.2c23.97,0,25.5,1.02,25.5,12.75
			c0,12.24-1.02,12.75-35.7,12.75h-35.7V-627.02z"/>
	</g>
	<g transform="matrix(0.13 0 0 -0.13 0.46 -6.83)">
		<path vector-effect="non-scaling-stroke" class="st0" d="M349.18-303.46c-27.54-12.75-39.27-47.94-26.01-77.52
			c5.61-11.73,5.1-14.28-0.51-16.32c-13.26-4.59-30.09-26.52-33.15-44.37c-10.2-54.57,52.53-92.32,104.56-62.73l19.89,11.22
			l14.28-13.77c14.28-13.77,42.84-18.87,48.96-9.18c1.53,2.04-7.65,13.77-19.89,25.5l-22.44,21.42l17.85,27.54
			c26.52,41.82,26.52,43.35,5.61,43.35c-15.81,0-19.38-2.55-31.62-23.46l-13.77-22.95l-16.83,19.38l-16.83,19.38l17.85,9.18
			c20.4,10.71,34.17,38.25,29.58,59.67C420.07-306.02,381.31-289.18,349.18-303.46z M392.53-348.35
			c1.53-10.71-1.53-15.3-13.77-21.42c-21.42-11.22-24.48-10.2-28.56,7.14c-4.59,20.91,4.59,31.62,24.99,29.58
			C387.94-334.07,391.51-337.13,392.53-348.35z M370.09-442.7c25.5-27.54,24.48-35.19-7.65-40.29
			c-32.64-5.1-53.04,31.11-30.09,54.06c5.61,5.61,11.22,10.2,12.24,10.2C346.12-418.73,357.34-429.44,370.09-442.7z"/>
	</g>
	<g transform="matrix(0.13 0 0 -0.13 -62.69 57.04)">
		<path vector-effect="non-scaling-stroke" class="st0" d="M605.38-99.46c-11.22-4.08-20.91-7.65-20.91-7.65
			c-0.51,0-6.63-8.67-14.28-19.38c-26.52-38.25-13.77-87.22,28.05-108.64c25.5-12.75,51-10.71,68.85,6.12
			c14.79,13.77,15.3,17.85,2.04,24.99c-8.16,4.08-13.26,3.57-21.42-2.55c-16.83-11.22-28.56-9.69-45.39,7.14
			c-18.87,18.87-20.4,44.88-3.06,60.18c17.34,15.81,28.56,17.85,47.94,8.67c16.83-8.16,17.85-8.16,28.05,1.53l10.2,10.2l-14.79,10.2
			C650.26-93.85,628.84-90.79,605.38-99.46z"/>
	</g>
	<g transform="matrix(0.13 0 0 -0.13 26.4 57.1)">
		<path vector-effect="non-scaling-stroke" class="st0" d="M224.11-99c-1.53-3.06-1.53-36.72-1.02-74.46l1.53-68.34l37.74,0.51
			c44.37,1.02,58.14,9.18,75.99,43.86c15.3,29.58,11.22,54.57-11.73,79.56c-15.3,17.34-18.36,18.36-58.65,20.91
			C239.92-94.91,225.13-95.42,224.11-99z M302.65-138.78c12.75-11.73,15.3-41.31,4.08-55.59c-7.14-9.69-29.07-19.38-44.37-19.38
			c-8.67,0-9.69,4.08-9.69,45.39v45.9l19.38-3.06C282.25-127.05,296.02-133.17,302.65-138.78z"/>
	</g>
	<g transform="matrix(0.13 0 0 -0.13 65.85 56.85)">
		<path vector-effect="non-scaling-stroke" class="st0" d="M130.05-96.81l-39.78-2.04l1.53-71.4l1.53-71.91l44.88-1.53l44.37-1.53
			v14.79v14.79h-33.15h-33.15v15.3c0,15.3,0.51,15.3,28.05,15.3s28.05,0,28.05,15.3s-0.51,15.3-28.05,15.3
			c-28.05,0-28.05,0-28.05,15.81v15.81l32.13-2.04l31.62-1.53l1.53,16.83c1.02,11.22-0.51,15.81-5.1,15.3
			C172.89-94.77,151.98-96.3,130.05-96.81z"/>
	</g>
	<g transform="matrix(0.13 0 0 -0.13 -19.9 57.57)">
		<path vector-effect="non-scaling-stroke" class="st0" d="M430.88-96.43c-27.54-10.2-49.98-53.04-43.35-83.64
			c6.63-30.09,44.37-60.69,74.46-60.69c33.15,0,70.89,40.8,70.89,75.99c0,23.97-14.28,51-32.64,62.22
			C484.94-93.37,448.22-90.31,430.88-96.43z M495.14-144.89c5.1-9.18,6.63-20.4,4.59-30.09c-3.57-15.3-23.97-35.19-36.72-35.19
			c-16.32,0-36.72,15.81-42.33,32.64C404.87-129.07,471.68-98.98,495.14-144.89z"/>
	</g>
</g>
</svg>
